<svg xmlns="http://www.w3.org/2000/svg" version="1.1" xmlns:xlink="http://www.w3.org/1999/xlink" xmlns:svgjs="http://svgjs.dev/svgjs" width="1500" height="1337" viewBox="0 0 1500 1337"><g transform="matrix(1,0,0,1,-1.269121544843415,0.541295546558672)"><svg viewBox="0 0 277 247" data-background-color="#ffffff" preserveAspectRatio="xMidYMid meet" height="1337" width="1500" xmlns="http://www.w3.org/2000/svg" xmlns:xlink="http://www.w3.org/1999/xlink"><g id="tight-bounds" transform="matrix(1,0,0,1,0.23436444528107359,-0.09999999999999432)"><svg viewBox="0 0 276.53127110943785 247.2" height="247.2" width="276.53127110943785"><g><svg viewBox="0 0 395.52 353.56776688487537" height="247.2" width="276.53127110943785"><g transform="matrix(1,0,0,1,0,273.6103536)"><svg viewBox="0 0 395.52 79.95741328487534" height="79.95741328487534" width="395.52"><g id="textblocktransform"><svg viewBox="0 0 395.52 79.95741328487534" height="79.95741328487534" width="395.52" id="textblock"><g><svg viewBox="0 0 395.52 49.43999999999999" height="49.43999999999999" width="395.52"><g transform="matrix(1,0,0,1,0,0)"><svg width="395.52" viewBox="3.8 -35.75 373.96999999999997 46.75" height="49.43999999999999" data-palette-color="#e8772e"><path d="M8.6 0L3.8 0 3.8-35 19.15-35Q22.45-35 25.15-33.58 27.85-32.15 29.45-29.58 31.05-27 31.05-23.55L31.05-23.55Q31.05-20.05 29.28-17.38 27.5-14.7 24.5-13.4L24.5-13.4 28.25-5.8Q28.65-5 29.13-4.63 29.6-4.25 30.5-4.25L30.5-4.25 33-4.25 33 0 29.75 0Q27.8 0 26.33-1 24.85-2 23.9-3.7L23.9-3.7 19.7-12.25Q19.2-12.2 18.63-12.18 18.05-12.15 17.45-12.15L17.45-12.15 8.6-12.15 8.6 0ZM8.6-30.75L8.6-16.4 18.5-16.4Q20.65-16.4 22.43-17.25 24.2-18.1 25.23-19.7 26.25-21.3 26.25-23.55L26.25-23.55Q26.25-25.85 25.2-27.45 24.15-29.05 22.4-29.9 20.65-30.75 18.55-30.75L18.55-30.75 8.6-30.75ZM54.75 0L36.5 0 36.5-4.25 43.25-4.25 43.25-30.75 36.5-30.75 36.5-35 54.75-35 54.75-30.75 48.05-30.75 48.05-4.25 54.75-4.25 54.75 0ZM85.3 0L66.75 0Q63.5 0 61.6-1.98 59.7-3.95 59.7-6.85L59.7-6.85Q59.7-8.7 60.45-10 61.2-11.3 62.9-12.7L62.9-12.7 78.75-25.8Q79.59-26.45 79.95-27 80.3-27.55 80.3-28.35L80.3-28.35Q80.3-28.95 79.95-29.5 79.59-30.05 79.07-30.4 78.55-30.75 77.9-30.75L77.9-30.75 60.8-30.75 60.8-35 78.34-35Q80.5-35 82.07-34.1 83.65-33.2 84.47-31.68 85.3-30.15 85.3-28.25L85.3-28.25Q85.3-26.4 84.52-24.98 83.75-23.55 82.15-22.25L82.15-22.25 66.3-9.2Q65.7-8.75 65.32-8.4 64.95-8.05 64.82-7.68 64.7-7.3 64.7-6.7L64.7-6.7Q64.7-6.1 65.02-5.53 65.34-4.95 65.92-4.6 66.5-4.25 67.25-4.25L67.25-4.25 85.3-4.25 85.3 0ZM124.94 0L120.44 0Q116.44-0.05 113.14-1.43 109.84-2.8 107.47-5.2 105.09-7.6 103.82-10.75 102.54-13.9 102.54-17.5L102.54-17.5Q102.54-21.1 103.82-24.25 105.09-27.4 107.47-29.8 109.84-32.2 113.14-33.58 116.44-34.95 120.44-35L120.44-35 124.94-35 124.94-30.75 120.59-30.75Q117.74-30.75 115.34-29.73 112.94-28.7 111.17-26.93 109.39-25.15 108.39-22.75 107.39-20.35 107.39-17.5L107.39-17.5Q107.39-14.7 108.39-12.28 109.39-9.85 111.17-8.08 112.94-6.3 115.34-5.3 117.74-4.3 120.59-4.25L120.59-4.25 124.94-4.25 124.94 0ZM142.39 0.6L142.39 0.6Q138.49 0.6 135.49-1.18 132.49-2.95 130.74-5.98 128.99-9 128.99-12.75L128.99-12.75Q128.99-16.5 130.74-19.53 132.49-22.55 135.49-24.33 138.49-26.1 142.39-26.1L142.39-26.1Q146.29-26.1 149.31-24.33 152.34-22.55 154.06-19.53 155.79-16.5 155.79-12.75L155.79-12.75Q155.79-9 154.06-5.98 152.34-2.95 149.31-1.18 146.29 0.6 142.39 0.6ZM142.39-3.35L142.39-3.35Q145.04-3.35 146.99-4.6 148.94-5.85 150.04-7.98 151.14-10.1 151.14-12.75L151.14-12.75Q151.14-15.4 150.04-17.53 148.94-19.65 146.99-20.9 145.04-22.15 142.39-22.15L142.39-22.15Q139.79-22.15 137.81-20.9 135.84-19.65 134.74-17.53 133.64-15.4 133.64-12.75L133.64-12.75Q133.64-10.1 134.74-7.98 135.84-5.85 137.81-4.6 139.79-3.35 142.39-3.35ZM166.14 0L161.54 0 161.54-18.25Q161.54-21.65 163.46-23.58 165.39-25.5 168.79-25.5L168.79-25.5 174.04-25.5 174.04-21.55 169.64-21.55Q167.99-21.55 167.06-20.6 166.14-19.65 166.14-17.95L166.14-17.95 166.14 0ZM191.18-26.1L191.18-26.1Q187.48-26.1 184.53-24.5 181.58-22.9 179.86-19.88 178.13-16.85 178.13-12.6L178.13-12.6 178.13 11 182.73 11 182.73-4.55 182.83-4.55Q183.68-3 185.06-1.85 186.43-0.7 188.21-0.05 189.98 0.6 191.93 0.6L191.93 0.6Q195.48 0.6 198.28-1 201.08-2.6 202.71-5.53 204.33-8.45 204.33-12.45L204.33-12.45Q204.33-15.6 203.36-18.13 202.38-20.65 200.63-22.45 198.88-24.25 196.48-25.18 194.08-26.1 191.18-26.1ZM191.18-22.15L191.18-22.15Q193.53-22.15 195.46-21 197.38-19.85 198.53-17.75 199.68-15.65 199.68-12.75L199.68-12.75Q199.68-9.95 198.56-7.85 197.43-5.75 195.53-4.55 193.63-3.35 191.23-3.35L191.23-3.35Q188.88-3.35 186.96-4.5 185.03-5.65 183.91-7.78 182.78-9.9 182.78-12.8L182.78-12.8Q182.78-15.65 183.91-17.75 185.03-19.85 186.96-21 188.88-22.15 191.18-22.15ZM222.23 0.6L222.23 0.6Q218.33 0.6 215.33-1.18 212.33-2.95 210.58-5.98 208.83-9 208.83-12.75L208.83-12.75Q208.83-16.5 210.58-19.53 212.33-22.55 215.33-24.33 218.33-26.1 222.23-26.1L222.23-26.1Q226.13-26.1 229.16-24.33 232.18-22.55 233.91-19.53 235.63-16.5 235.63-12.75L235.63-12.75Q235.63-9 233.91-5.98 232.18-2.95 229.16-1.18 226.13 0.6 222.23 0.6ZM222.23-3.35L222.23-3.35Q224.88-3.35 226.83-4.6 228.78-5.85 229.88-7.98 230.98-10.1 230.98-12.75L230.98-12.75Q230.98-15.4 229.88-17.53 228.78-19.65 226.83-20.9 224.88-22.15 222.23-22.15L222.23-22.15Q219.63-22.15 217.66-20.9 215.68-19.65 214.58-17.53 213.48-15.4 213.48-12.75L213.48-12.75Q213.48-10.1 214.58-7.98 215.68-5.85 217.66-4.6 219.63-3.35 222.23-3.35ZM245.98 0L241.38 0 241.38-18.25Q241.38-21.65 243.3-23.58 245.23-25.5 248.63-25.5L248.63-25.5 253.88-25.5 253.88-21.55 249.48-21.55Q247.83-21.55 246.9-20.6 245.98-19.65 245.98-17.95L245.98-17.95 245.98 0ZM268.73 0.6L268.73 0.6Q265.03 0.6 262.33-1.18 259.63-2.95 258.18-6 256.73-9.05 256.73-12.75L256.73-12.75Q256.73-16.5 258.33-19.53 259.93-22.55 262.93-24.33 265.93-26.1 270.13-26.1L270.13-26.1Q274.18-26.1 277.08-24.35 279.98-22.6 281.55-19.6 283.13-16.6 283.13-12.9L283.13-12.9 283.13 0 278.48 0 278.48-5.2 278.38-5.2Q277.63-3.75 276.35-2.43 275.08-1.1 273.18-0.25 271.28 0.6 268.73 0.6ZM269.93-3.35L269.93-3.35Q272.43-3.35 274.35-4.58 276.28-5.8 277.35-7.98 278.43-10.15 278.43-12.85L278.43-12.85Q278.43-15.5 277.4-17.6 276.38-19.7 274.48-20.93 272.58-22.15 270.03-22.15L270.03-22.15Q267.33-22.15 265.4-20.9 263.48-19.65 262.45-17.53 261.43-15.4 261.43-12.7L261.43-12.7Q261.43-10.1 262.43-7.98 263.43-5.85 265.33-4.6 267.23-3.35 269.93-3.35ZM305.12 0L299.12 0Q295.72 0 293.8-1.95 291.87-3.9 291.87-7.25L291.87-7.25 291.87-31.9 296.47-31.9 296.47-7.55Q296.47-5.9 297.4-4.93 298.32-3.95 299.97-3.95L299.97-3.95 305.12-3.95 305.12 0ZM305.22-21.55L287.47-21.55 287.47-25.5 305.22-25.5 305.22-21.55ZM315.42 0L310.77 0 310.77-25.5 315.42-25.5 315.42 0ZM313.12-29.55L313.12-29.55Q311.87-29.55 310.95-30.48 310.02-31.4 310.02-32.65L310.02-32.65Q310.02-33.9 310.95-34.83 311.87-35.75 313.12-35.75L313.12-35.75Q314.37-35.75 315.3-34.83 316.22-33.9 316.22-32.65L316.22-32.65Q316.22-31.4 315.3-30.48 314.37-29.55 313.12-29.55ZM334.67 0.6L334.67 0.6Q330.77 0.6 327.77-1.18 324.77-2.95 323.02-5.98 321.27-9 321.27-12.75L321.27-12.75Q321.27-16.5 323.02-19.53 324.77-22.55 327.77-24.33 330.77-26.1 334.67-26.1L334.67-26.1Q338.57-26.1 341.59-24.33 344.62-22.55 346.34-19.53 348.07-16.5 348.07-12.75L348.07-12.75Q348.07-9 346.34-5.98 344.62-2.95 341.59-1.18 338.57 0.6 334.67 0.6ZM334.67-3.35L334.67-3.35Q337.32-3.35 339.27-4.6 341.22-5.85 342.32-7.98 343.42-10.1 343.42-12.75L343.42-12.75Q343.42-15.4 342.32-17.53 341.22-19.65 339.27-20.9 337.32-22.15 334.67-22.15L334.67-22.15Q332.07-22.15 330.09-20.9 328.12-19.65 327.02-17.53 325.92-15.4 325.92-12.75L325.92-12.75Q325.92-10.1 327.02-7.98 328.12-5.85 330.09-4.6 332.07-3.35 334.67-3.35ZM358.57 0L353.97 0 353.97-14.75Q353.97-18.15 355.49-20.7 357.02-23.25 359.72-24.68 362.42-26.1 365.87-26.1L365.87-26.1Q369.37-26.1 372.04-24.68 374.72-23.25 376.24-20.7 377.77-18.15 377.77-14.75L377.77-14.75 377.77 0 373.17 0 373.17-14.7Q373.17-17 372.14-18.68 371.12-20.35 369.44-21.25 367.77-22.15 365.87-22.15L365.87-22.15Q363.97-22.15 362.29-21.25 360.62-20.35 359.59-18.68 358.57-17 358.57-14.7L358.57-14.7 358.57 0Z" opacity="1" transform="matrix(1,0,0,1,0,0)" fill="#e8772e" class="wordmark-text-0" data-fill-palette-color="primary" id="text-0"></path></svg></g></svg></g><g transform="matrix(1,0,0,1,75.54432,61.11159743999999)"><svg viewBox="0 0 244.43135999999998 18.845815844875347" height="18.845815844875347" width="244.43135999999998"><g transform="matrix(1,0,0,1,0,0)"><svg width="244.43135999999998" viewBox="2.37 -35.82 581.63 44.85" height="18.845815844875347" data-palette-color="#e8772e"><path d="M2.37 0L2.37-6.91 5.62-6.91 5.62-25.51 2.37-25.51 2.37-32.4 19.65-32.4 19.65-25.51 16.41-25.51 16.41-6.91 19.65-6.91 19.65 0 2.37 0ZM35.64-32.4L35.64-6.47 42.77-6.47 42.77 0 31.35 0 24.85-6.47 24.85-19.46 22.7-19.46 22.7-25.93 24.85-25.93 24.85-28.74 35.64-32.4ZM43.16-19.46L37.35-19.46 37.35-25.93 43.16-25.93 43.16-19.46ZM49.9-16.21L48.77-32.4 58.81-32.4 57.66-16.21 49.9-16.21ZM65.57-20.12L71.4-25.93 75.72-25.93 75.72-16.77 88.03-16.77 93.64-11.11 93.64-6.05 87.61 0 82.85 0 82.85-9.79 71.18-9.79 65.57-15.19 65.57-20.12ZM76.36-7.42L76.36-4.76 81.14-4.76 81.14 0 70.04-0.02 65.54-5.35 65.54-7.42 76.36-7.42ZM82.85-19.14L82.85-21.17 77.43-21.17 77.43-25.93 88.91-25.93 92.77-22.07 92.77-19.14 82.85-19.14ZM138.44 0L127.89 0 127.89-19.46 112.54-19.46 112.54-22.68 115.78-25.93 131.97-25.93 138.44-19.46 138.44 0ZM114.71-15.09L126.18-15.09 126.18-10.6 120.62-10.6 120.62-6.05 126.18-6.05 126.18-3.2 122.96 0 114.71 0 110.36-4.27 110.36-10.77 114.71-15.09ZM158.92-6.47L158.92 0 149.35 0 143.3-6.05 143.3-35.82 154.09-35.82 154.09-6.47 158.92-6.47ZM177.3-6.47L177.3 0 167.73 0 161.68-6.05 161.68-35.82 172.47-35.82 172.47-6.47 177.3-6.47ZM220.61-25.93L207.45 9.03 197.1 9.03 210.23-25.93 220.61-25.93ZM199.68-2.17L190.11-25.93 200.88-25.93 204.52-15.38 199.68-2.17ZM251.71-19.46L251.71-6.47 245.24 0 238.01 0 238.01-6.05 240.7-6.05 240.7-19.46 238.01-19.46 238.01-25.93 245.24-25.93 251.71-19.46ZM233.5-19.46L233.5-6.05 236.3-6.05 236.3 0 229.05 0 222.58-6.47 222.58-19.46 229.05-25.93 236.3-25.93 236.3-19.46 233.5-19.46ZM273.65-25.93L284.45-25.93 284.45 0 273.65 0 273.65-25.93ZM267.14-25.93L267.14-6.47 271.95-6.47 271.95-3.25 268.82 0 262.84 0 256.34-6.47 256.34-25.93 267.14-25.93ZM313.03-25.93L313.03 0 308.71 0 302.24-6.47 302.24-19.46 308.71-25.93 313.03-25.93ZM330.36-10.4L314.74-10.4 314.74-14.92 320.43-14.92 320.43-19.46 314.74-19.46 314.74-25.93 323.89-25.93 330.36-19.46 330.36-10.4ZM326.02 0L314.74 0 314.74-6.05 329.24-6.05 329.24-3.25 326.02 0ZM341.76 0L332.07-25.93 342.79-25.93 352.02 0 341.76 0ZM361.85-25.93L353.11-1.44 348.28-15.16 351.77-25.93 361.85-25.93ZM374.62-25.93L374.62 0 370.3 0 363.83-6.47 363.83-19.46 370.3-25.93 374.62-25.93ZM391.95-10.4L376.33-10.4 376.33-14.92 382.02-14.92 382.02-19.46 376.33-19.46 376.33-25.93 385.48-25.93 391.95-19.46 391.95-10.4ZM387.61 0L376.33 0 376.33-6.05 390.83-6.05 390.83-3.25 387.61 0ZM413.66-13.16L413.66-19.46 409.07-19.46 409.07-22.29 412.68-25.93 419.22-25.93 424.47-19.87 424.47-13.16 413.66-13.16ZM407.33 0L396.54 0 396.54-25.93 407.33-25.93 407.33 0ZM451.62 0L440.73 0 440.73-25.93 451.62-25.93 451.62 0ZM458.01 0L458.01-19.46 453.37-19.46 453.37-22.29 456.99-25.93 462.99-25.93 468.83-20.09 468.83 0 458.01 0ZM484.4-25.93L484.4 0 480.08 0 473.61-6.47 473.61-19.46 480.08-25.93 484.4-25.93ZM501.73-10.4L486.11-10.4 486.11-14.92 491.8-14.92 491.8-19.46 486.11-19.46 486.11-25.93 495.27-25.93 501.73-19.46 501.73-10.4ZM497.39 0L486.11 0 486.11-6.05 500.61-6.05 500.61-3.25 497.39 0ZM516.89-25.93L516.89 0 512.57 0 506.1-6.47 506.1-19.46 512.57-25.93 516.89-25.93ZM534.23-10.4L518.6-10.4 518.6-14.92 524.29-14.92 524.29-19.46 518.6-19.46 518.6-25.93 527.76-25.93 534.23-19.46 534.23-10.4ZM529.88 0L518.6 0 518.6-6.05 533.1-6.05 533.1-3.25 529.88 0ZM556.3-35.82L567.09-35.82 567.09 0 556.3 0 556.3-35.82ZM549.39-19.46L549.39-6.05 554.59-6.05 554.59-2.56 552.02 0 544.43 0 538.59-5.83 538.59-20.09 544.43-25.93 554.59-25.93 554.59-19.46 549.39-19.46ZM573.21 0L573.21-7.54 584-7.54 584 0 573.21 0Z" opacity="1" transform="matrix(1,0,0,1,0,0)" fill="#e8772e" class="slogan-text-1" data-fill-palette-color="secondary" id="text-1"></path></svg></g></svg></g></svg></g></svg></g><g transform="matrix(1,0,0,1,75.54432,0)"><svg viewBox="0 0 244.43135999999998 244.43135999999998" height="244.43135999999998" width="244.43135999999998"><g><svg viewBox="0 0 244.43135999999998 244.43135999999998" height="244.43135999999998" width="244.43135999999998"><g transform="matrix(1,0,0,1,64.60265593644992,64.80820811254512)"><svg viewBox="0 0 115.22604812710014 114.81494377490974" height="114.81494377490974" width="115.22604812710014"><g><svg xmlns="http://www.w3.org/2000/svg" data-name="Layer 1" viewBox="1.434527097299365 1.621016404398495 97.11547290270065 96.76898359560151" x="0" y="0" height="114.81494377490974" width="115.22604812710014" class="icon-cg-0" data-fill-palette-color="accent" id="cg-0"><path d="M15.26 39.47a7.2 7.2 0 0 0 1.66-7.79 11.34 11.34 0 0 1-0.84-4.95 11.14 11.14 0 0 1 3.26-7.34 11.78 11.78 0 0 1 1-0.89 11.5 11.5 0 0 1 15.3 1.14l4.1 4.1L14.66 48.82a8.4 8.4 0 0 0 0 11.88L36.2 82.24a8.4 8.4 0 0 0 11.88 0L58.22 72.11l4.29 4.29a2 2 0 0 0 1.41 0.58h6.52a0.76 0.76 0 0 1 0.76 0.76v5.79a2.61 2.61 0 0 0 2.61 2.61H79.6a0.76 0.76 0 0 1 0.76 0.76v6.51a2 2 0 0 0 0.58 1.41L84 97.89a1.71 1.71 0 0 0 1.2 0.5H97.4a1.15 1.15 0 0 0 1.15-1.15V85a1.7 1.7 0 0 0-0.5-1.2L72.27 58.06 82.4 47.93A8.4 8.4 0 0 0 82.4 36L60.86 14.5a8.39 8.39 0 0 0-10.79-0.89l0.11-0.11L46.08 9.41C36-0.63 19.66-1 9.56 8.51l-0.42 0.41A26 26 0 0 0 3.38 37.26 7.29 7.29 0 0 0 15.26 39.47Zm27.3 2.94a7.85 7.85 0 1 1 0 11.1A7.85 7.85 0 0 1 42.56 42.4Z" fill="#e8772e" data-fill-palette-color="accent"></path></svg></g></svg></g><g id="text-0"><path d="M25.212 87.953l-1.025 2.881-21.005-7.471 3.275-9.208c0.47-1.32 1.185-2.419 2.145-3.297 0.952-0.874 2.056-1.45 3.312-1.73 1.259-0.271 2.577-0.162 3.954 0.328v0c1.402 0.499 2.512 1.292 3.33 2.38 0.816 1.094 1.27 2.334 1.362 3.72v0l5.363-0.63c0.377-0.049 0.674-0.141 0.891-0.276 0.217-0.134 0.39-0.383 0.519-0.746v0l0.534-1.501 2.553 0.908-0.694 1.952c-0.278 0.782-0.722 1.396-1.332 1.842-0.61 0.446-1.323 0.738-2.141 0.877v0l-6.023 0.702c-0.052 0.207-0.112 0.425-0.18 0.655-0.076 0.234-0.156 0.469-0.241 0.707v0l-1.89 5.313zM6.76 81.389l8.616 3.065 2.113-5.941c0.305-0.857 0.412-1.704 0.322-2.54-0.086-0.827-0.375-1.561-0.867-2.201-0.5-0.636-1.2-1.114-2.101-1.434v0c-0.92-0.327-1.773-0.395-2.561-0.203-0.787 0.192-1.478 0.578-2.071 1.156-0.587 0.581-1.03 1.29-1.328 2.129v0z" fill="#e8772e" data-fill-palette-color="accent"></path><path d="M38.491 59.943l-5.938 9.994-2.33-1.384 2.198-3.699-14.508-8.619-2.198 3.699-2.329-1.383 5.937-9.995 2.33 1.384-2.178 3.665 14.508 8.619 2.178-3.665z" fill="#e8772e" data-fill-palette-color="accent"></path><path d="M52.38 43.836l-7.816 8.86c-0.914 1.036-1.95 1.578-3.11 1.627-1.169 0.05-2.213-0.332-3.135-1.145v0c-0.588-0.518-0.983-1.08-1.185-1.683-0.202-0.604-0.288-1.375-0.257-2.313v0l0.423-13.084c0.028-0.453 0.006-0.814-0.068-1.082-0.078-0.263-0.243-0.507-0.497-0.731v0c-0.194-0.171-0.427-0.279-0.698-0.324-0.275-0.039-0.54-0.025-0.795 0.043-0.264 0.068-0.486 0.204-0.666 0.409v0l-7.203 8.165-2.032-1.793 7.394-8.382c0.602-0.682 1.269-1.147 2.002-1.395 0.728-0.243 1.45-0.284 2.167-0.122 0.716 0.162 1.378 0.511 1.985 1.048v0c0.588 0.518 0.998 1.102 1.232 1.751 0.238 0.644 0.34 1.407 0.305 2.289v0l-0.446 13.063c-0.023 0.317-0.032 0.583-0.028 0.8 0.004 0.216 0.048 0.397 0.133 0.542 0.084 0.145 0.224 0.304 0.418 0.475v0c0.189 0.167 0.422 0.279 0.699 0.337 0.272 0.063 0.544 0.051 0.816-0.037 0.272-0.088 0.514-0.251 0.725-0.49v0l7.605-8.62z" fill="#e8772e" data-fill-palette-color="accent"></path><path d="M76.516 27.085l-2.455 1.485c-1.459 0.859-2.94 1.402-4.441 1.627-1.501 0.225-2.947 0.164-4.337-0.182-1.393-0.353-2.668-0.959-3.825-1.82-1.155-0.869-2.127-1.958-2.918-3.264v0c-0.791-1.307-1.301-2.671-1.532-4.092-0.228-1.43-0.174-2.841 0.165-4.232 0.334-1.398 0.952-2.706 1.851-3.926 0.897-1.225 2.062-2.288 3.498-3.187v0l2.455-1.485 1.402 2.319-2.37 1.433c-1.034 0.626-1.875 1.391-2.523 2.295-0.646 0.895-1.097 1.863-1.353 2.902-0.254 1.031-0.298 2.093-0.132 3.189 0.162 1.089 0.556 2.151 1.182 3.185v0c0.615 1.017 1.371 1.856 2.267 2.517 0.896 0.661 1.862 1.121 2.896 1.38 1.036 0.25 2.099 0.294 3.188 0.132 1.095-0.166 2.165-0.553 3.21-1.161v0l2.369-1.433z" fill="#e8772e" data-fill-palette-color="accent"></path><path d="M88.661 22.78v0c-1.558 0.574-3.065 0.729-4.521 0.465-1.452-0.272-2.748-0.881-3.89-1.827-1.141-0.946-1.987-2.167-2.537-3.663v0c-0.551-1.496-0.698-2.974-0.443-4.433 0.253-1.466 0.845-2.77 1.776-3.913 0.935-1.151 2.182-2.013 3.74-2.587v0c1.552-0.571 3.06-0.723 4.524-0.455 1.468 0.259 2.768 0.867 3.898 1.823 1.128 0.95 1.968 2.174 2.519 3.67v0c0.551 1.496 0.705 2.971 0.462 4.426-0.243 1.455-0.838 2.761-1.785 3.916-0.944 1.147-2.191 2.006-3.743 2.578zM87.793 20.424v0c1.053-0.388 1.878-0.974 2.473-1.759 0.589-0.783 0.949-1.68 1.08-2.691 0.124-1.008-0.008-2.039-0.395-3.092v0c-0.39-1.059-0.958-1.93-1.705-2.61-0.755-0.685-1.61-1.134-2.566-1.348-0.963-0.212-1.971-0.124-3.024 0.264v0c-1.041 0.383-1.862 0.969-2.463 1.756-0.602 0.788-0.968 1.687-1.099 2.697-0.127 1.002 0.005 2.033 0.396 3.092v0c0.388 1.053 0.956 1.923 1.704 2.611 0.755 0.685 1.616 1.132 2.585 1.341 0.969 0.209 1.974 0.123 3.014-0.261z" fill="#e8772e" data-fill-palette-color="accent"></path><path d="M104.926 17.891l-2.88 0.532-2.113-11.432c-0.262-1.417-0.066-2.602 0.589-3.553 0.655-0.952 1.691-1.559 3.108-1.821v0l3.292-0.608 0.456 2.469-2.753 0.508c-0.692 0.128-1.194 0.427-1.505 0.897-0.312 0.47-0.402 1.057-0.272 1.762v0z" fill="#e8772e" data-fill-palette-color="accent"></path><path d="M122.494 0.002v0c-1.567 0.027-2.972 0.393-4.216 1.098-1.243 0.699-2.219 1.695-2.927 2.99-0.708 1.301-1.047 2.851-1.016 4.65v0l0.258 15.03 2.928-0.05-0.17-9.901 0.06-0.001c0.377 0.651 0.858 1.217 1.444 1.699 0.593 0.475 1.27 0.845 2.031 1.111 0.755 0.259 1.548 0.382 2.378 0.368v0c1.507-0.026 2.849-0.388 4.026-1.086 1.177-0.698 2.1-1.673 2.77-2.927 0.669-1.254 0.989-2.73 0.96-4.43v0c-0.023-1.335-0.253-2.536-0.69-3.605-0.43-1.062-1.023-1.968-1.78-2.719-0.757-0.751-1.647-1.313-2.669-1.688-1.029-0.381-2.158-0.561-3.387-0.539zM122.537 2.522v0c0.996-0.017 1.907 0.21 2.732 0.68 0.825 0.477 1.491 1.157 1.998 2.038 0.5 0.881 0.761 1.94 0.782 3.175v0c0.02 1.189-0.197 2.232-0.654 3.13-0.463 0.898-1.095 1.61-1.896 2.135-0.795 0.525-1.703 0.796-2.726 0.814v0c-0.996 0.017-1.907-0.213-2.732-0.691-0.825-0.471-1.484-1.153-1.978-2.048-0.494-0.895-0.751-1.957-0.772-3.185v0c-0.021-1.215 0.2-2.272 0.663-3.17 0.463-0.898 1.098-1.6 1.906-2.105 0.808-0.499 1.701-0.757 2.677-0.773z" fill="#e8772e" data-fill-palette-color="accent"></path><path d="M143.826 19.335v0c-1.627-0.329-2.992-0.987-4.093-1.975-1.094-0.993-1.878-2.192-2.354-3.595-0.475-1.404-0.555-2.887-0.24-4.449v0c0.315-1.562 0.965-2.898 1.948-4.008 0.984-1.116 2.172-1.916 3.564-2.4 1.4-0.49 2.913-0.57 4.541-0.242v0c1.621 0.327 2.985 0.989 4.091 1.985 1.114 0.991 1.902 2.19 2.363 3.597 0.462 1.401 0.536 2.883 0.22 4.445v0c-0.315 1.562-0.958 2.899-1.928 4.012-0.97 1.112-2.161 1.911-3.573 2.398-1.405 0.482-2.918 0.559-4.539 0.232zM144.323 16.874v0c1.1 0.222 2.11 0.155 3.028-0.201 0.912-0.358 1.689-0.933 2.33-1.725 0.634-0.793 1.063-1.74 1.285-2.84v0c0.223-1.107 0.196-2.145-0.082-3.117-0.283-0.979-0.776-1.81-1.478-2.493-0.709-0.685-1.613-1.139-2.713-1.361v0c-1.087-0.22-2.093-0.152-3.019 0.203-0.925 0.355-1.709 0.929-2.35 1.721-0.633 0.787-1.061 1.734-1.285 2.84v0c-0.222 1.1-0.195 2.139 0.083 3.117 0.283 0.979 0.783 1.811 1.497 2.497 0.715 0.686 1.616 1.139 2.704 1.359z" fill="#e8772e" data-fill-palette-color="accent"></path><path d="M160.24 23.701l-2.732-1.057 4.196-10.841c0.52-1.344 1.308-2.25 2.365-2.717 1.057-0.467 2.257-0.44 3.601 0.08v0l3.121 1.208-0.906 2.341-2.61-1.01c-0.657-0.254-1.241-0.263-1.752-0.027-0.512 0.236-0.897 0.689-1.156 1.358v0z" fill="#e8772e" data-fill-palette-color="accent"></path><path d="M174.645 31.568v0c-1.354-0.803-2.33-1.819-2.93-3.047-0.602-1.237-0.835-2.569-0.7-3.994 0.129-1.429 0.594-2.817 1.394-4.166v0c0.813-1.371 1.838-2.435 3.074-3.191 1.24-0.763 2.6-1.141 4.079-1.136 1.483-0.001 2.993 0.455 4.53 1.366v0c1.474 0.874 2.552 1.946 3.234 3.216 0.677 1.267 0.979 2.619 0.906 4.058-0.074 1.439-0.51 2.832-1.31 4.181v0l-4.193 7.068-2.553-1.514 1.687-2.845-0.051-0.03c-0.586 0.363-1.257 0.648-2.014 0.855-0.751 0.211-1.563 0.266-2.437 0.165-0.88-0.105-1.785-0.434-2.716-0.986zM176.585 29.8v0c0.914 0.542 1.854 0.799 2.822 0.77 0.97-0.034 1.885-0.334 2.744-0.897 0.865-0.56 1.591-1.334 2.177-2.322v0c0.573-0.965 0.9-1.941 0.983-2.927 0.077-0.989-0.096-1.914-0.52-2.775-0.433-0.859-1.114-1.564-2.045-2.117v0c-0.982-0.583-1.963-0.856-2.943-0.819-0.974 0.04-1.876 0.339-2.708 0.895-0.834 0.547-1.545 1.315-2.131 2.304v0c-0.562 0.948-0.891 1.919-0.987 2.913-0.095 0.994 0.07 1.926 0.496 2.796 0.42 0.867 1.124 1.593 2.112 2.179z" fill="#e8772e" data-fill-palette-color="accent"></path><path d="M194.622 46.286l-2.85-2.536c-1.081-0.963-1.651-2.025-1.71-3.189-0.063-1.158 0.378-2.268 1.323-3.33v0l10.438-11.727 2.188 1.947-10.306 11.579c-0.468 0.526-0.693 1.073-0.673 1.641 0.019 0.568 0.291 1.086 0.817 1.554v0l2.448 2.179zM203.8 36.078l-8.446-7.517 1.669-1.875 8.446 7.517z" fill="#e8772e" data-fill-palette-color="accent"></path><path d="M200.669 52.9l-1.978-2.214 12.112-10.816 1.977 2.214zM213.729 39.273v0c-0.354-0.396-0.515-0.871-0.484-1.424 0.027-0.558 0.238-1.014 0.635-1.368v0c0.396-0.354 0.873-0.513 1.431-0.477 0.558 0.027 1.014 0.238 1.368 0.635v0c0.349 0.391 0.508 0.868 0.477 1.431-0.031 0.553-0.245 1.007-0.642 1.361v0c-0.396 0.354-0.871 0.515-1.424 0.484-0.558-0.036-1.011-0.25-1.361-0.642z" fill="#e8772e" data-fill-palette-color="accent"></path><path d="M208.439 64.888v0c-0.897-1.397-1.374-2.835-1.431-4.314-0.048-1.476 0.267-2.874 0.944-4.192 0.677-1.318 1.686-2.408 3.028-3.269v0c1.341-0.861 2.752-1.324 4.232-1.39 1.486-0.07 2.887 0.226 4.204 0.888 1.326 0.664 2.437 1.695 3.334 3.093v0c0.893 1.392 1.367 2.831 1.423 4.319 0.064 1.49-0.249 2.89-0.939 4.2-0.684 1.307-1.697 2.391-3.038 3.252v0c-1.341 0.861-2.749 1.33-4.222 1.407-1.473 0.077-2.876-0.222-4.21-0.897-1.324-0.673-2.432-1.706-3.325-3.097zM210.552 63.532v0c0.606 0.945 1.357 1.623 2.252 2.034 0.892 0.406 1.845 0.564 2.86 0.473 1.011-0.097 1.989-0.448 2.934-1.054v0c0.95-0.61 1.677-1.352 2.18-2.228 0.505-0.885 0.759-1.817 0.762-2.797-0.001-0.986-0.305-1.951-0.911-2.895v0c-0.599-0.933-1.348-1.609-2.247-2.026-0.899-0.417-1.856-0.58-2.871-0.49-1.006 0.093-1.984 0.444-2.934 1.054v0c-0.945 0.606-1.671 1.349-2.18 2.228-0.505 0.885-0.756 1.823-0.751 2.814 0.005 0.991 0.307 1.954 0.906 2.887z" fill="#e8772e" data-fill-palette-color="accent"></path><path d="M216.508 79.615l-1.054-2.732 8.764-3.382c1.345-0.519 2.639-0.67 3.883-0.452 1.242 0.211 2.352 0.744 3.329 1.598 0.984 0.852 1.738 1.959 2.265 3.323v0c0.536 1.388 0.723 2.722 0.561 4.001-0.155 1.277-0.621 2.411-1.399 3.401-0.776 0.997-1.836 1.755-3.181 2.274v0l-8.764 3.382-1.054-2.732 8.736-3.372c0.911-0.351 1.619-0.86 2.124-1.524 0.508-0.659 0.813-1.389 0.917-2.19 0.097-0.799 0-1.577-0.292-2.333v0c-0.289-0.75-0.738-1.388-1.347-1.915-0.618-0.53-1.336-0.869-2.154-1.016-0.821-0.153-1.687-0.054-2.597 0.298v0z" fill="#e8772e" data-fill-palette-color="accent"></path><path d="M9.973 155.464l-1.008-2.845 20.75-7.356 3.225 9.098c0.464 1.308 0.603 2.594 0.417 3.858-0.184 1.27-0.671 2.401-1.461 3.393-0.796 0.994-1.877 1.733-3.241 2.216v0c-1.383 0.49-2.728 0.573-4.034 0.247-1.306-0.326-2.427-0.993-3.362-2v0l-3.718 3.823c-0.257 0.267-0.428 0.522-0.512 0.762-0.084 0.241-0.062 0.54 0.064 0.897v0l0.526 1.484-2.516 0.892-0.683-1.925c-0.273-0.77-0.317-1.519-0.13-2.247 0.188-0.722 0.553-1.391 1.096-2.006v0l4.188-4.286c-0.096-0.191-0.187-0.399-0.273-0.622-0.092-0.221-0.181-0.45-0.265-0.688v0l-1.861-5.248zM28.207 149l-8.506 3.015 2.08 5.869c0.302 0.851 0.743 1.569 1.323 2.152 0.587 0.581 1.268 0.963 2.045 1.146 0.776 0.183 1.609 0.117 2.498-0.199v0c0.908-0.322 1.603-0.804 2.086-1.448 0.486-0.637 0.776-1.36 0.87-2.168 0.092-0.815-0.01-1.638-0.305-2.471v0z" fill="#e8772e" data-fill-palette-color="accent"></path><path d="M24.491 186.197l-5.855-9.881 2.297-1.361 2.163 3.651 14.347-8.502-2.164-3.651 2.297-1.361 5.855 9.882-2.296 1.361-2.149-3.626-14.346 8.502 2.148 3.625z" fill="#e8772e" data-fill-palette-color="accent"></path><path d="M40.097 204.745l-7.707-8.756c-0.904-1.027-1.308-2.114-1.212-3.26 0.092-1.142 0.596-2.117 1.514-2.925v0c0.578-0.509 1.177-0.824 1.796-0.944 0.62-0.13 1.384-0.121 2.292 0.026v0l12.773 2.041c0.441 0.089 0.798 0.112 1.069 0.068 0.271-0.044 0.531-0.176 0.78-0.395v0c0.189-0.167 0.323-0.382 0.401-0.645 0.078-0.263 0.099-0.525 0.064-0.786-0.035-0.261-0.143-0.494-0.322-0.698v0l-7.109-8.076 2.004-1.764 7.293 8.285c0.597 0.678 0.97 1.389 1.121 2.132 0.16 0.744 0.112 1.459-0.144 2.144-0.25 0.68-0.675 1.284-1.273 1.811v0c-0.583 0.513-1.207 0.845-1.87 0.996-0.664 0.151-1.421 0.154-2.274 0.01v0l-12.75-2.061c-0.306-0.067-0.567-0.107-0.783-0.12-0.215-0.023-0.397-0.004-0.547 0.056-0.155 0.065-0.327 0.182-0.516 0.349v0c-0.189 0.167-0.328 0.381-0.415 0.644-0.092 0.258-0.114 0.529-0.066 0.814 0.048 0.276 0.176 0.531 0.382 0.766v0l7.503 8.524z" fill="#e8772e" data-fill-palette-color="accent"></path><path d="M68.047 224.744l-2.421-1.465c-1.427-0.887-2.582-1.935-3.464-3.145-0.883-1.21-1.49-2.501-1.824-3.875-0.33-1.379-0.382-2.774-0.158-4.183 0.23-1.406 0.735-2.753 1.516-4.043v0c0.781-1.29 1.74-2.362 2.879-3.218 1.145-0.852 2.404-1.452 3.779-1.8 1.371-0.342 2.798-0.403 4.279-0.181 1.481 0.221 2.945 0.758 4.393 1.611v0l2.42 1.465-1.382 2.284-2.335-1.414c-1.023-0.619-2.078-1.005-3.165-1.158-1.087-0.153-2.141-0.104-3.163 0.146-1.021 0.251-1.971 0.697-2.848 1.339-0.881 0.647-1.63 1.482-2.249 2.504v0c-0.609 1.006-0.997 2.051-1.166 3.138-0.168 1.086-0.127 2.14 0.125 3.161 0.251 1.021 0.7 1.973 1.347 2.853 0.647 0.881 1.475 1.642 2.484 2.284v0l2.335 1.413z" fill="#e8772e" data-fill-palette-color="accent"></path><path d="M82.765 231.144v0c-1.533-0.565-2.76-1.413-3.68-2.545-0.927-1.134-1.514-2.423-1.761-3.866-0.253-1.445-0.108-2.906 0.437-4.383v0c0.544-1.477 1.381-2.683 2.511-3.618 1.124-0.938 2.407-1.537 3.848-1.799 1.435-0.264 2.919-0.114 4.452 0.451v0c1.539 0.567 2.775 1.419 3.708 2.556 0.933 1.137 1.52 2.425 1.761 3.865 0.234 1.438 0.08 2.896-0.465 4.373v0c-0.544 1.477-1.372 2.686-2.483 3.629-1.118 0.94-2.4 1.54-3.848 1.799-1.447 0.259-2.941 0.105-4.48-0.462zM83.626 228.807v0c1.047 0.386 2.043 0.477 2.989 0.273 0.948-0.21 1.792-0.656 2.532-1.339 0.744-0.674 1.308-1.532 1.691-2.572v0c0.383-1.041 0.512-2.062 0.385-3.064-0.122-0.993-0.476-1.878-1.061-2.652-0.585-0.775-1.401-1.355-2.448-1.741v0c-1.022-0.377-2.013-0.462-2.973-0.257-0.954 0.208-1.803 0.648-2.547 1.323-0.74 0.683-1.302 1.545-1.685 2.585v0c-0.383 1.041-0.514 2.058-0.392 3.051 0.126 1.002 0.485 1.892 1.076 2.669 0.6 0.773 1.411 1.348 2.433 1.724z" fill="#e8772e" data-fill-palette-color="accent"></path><path d="M101.974 236.059l-2.85-0.528 2.087-11.284c0.26-1.404 0.861-2.431 1.805-3.08 0.936-0.644 2.107-0.836 3.511-0.577v0l3.242 0.6-0.451 2.439-2.713-0.502c-0.686-0.127-1.254-0.029-1.706 0.292-0.451 0.322-0.741 0.832-0.871 1.531v0z" fill="#e8772e" data-fill-palette-color="accent"></path><path d="M122.777 221.184v0c-1.554-0.026-2.954 0.285-4.2 0.935-1.246 0.65-2.242 1.603-2.988 2.859-0.745 1.256-1.133 2.774-1.163 4.553v0l-0.251 14.851 2.898 0.049 0.166-9.781 0.06 0.001c0.341 0.657 0.796 1.229 1.365 1.717 0.569 0.495 1.224 0.884 1.963 1.169 0.739 0.285 1.517 0.434 2.334 0.448v0c1.494 0.025 2.831-0.287 4.011-0.938 1.187-0.651 2.132-1.585 2.837-2.802 0.705-1.217 1.071-2.662 1.1-4.335v0c0.022-1.321-0.163-2.517-0.557-3.586-0.394-1.063-0.95-1.979-1.667-2.748-0.724-0.763-1.585-1.349-2.581-1.758-1.003-0.402-2.112-0.614-3.327-0.634zM122.735 223.664v0c0.989 0.017 1.882 0.274 2.677 0.773 0.802 0.492 1.435 1.183 1.898 2.074 0.47 0.891 0.694 1.945 0.674 3.16v0c-0.02 1.175-0.273 2.197-0.759 3.066-0.486 0.875-1.132 1.558-1.938 2.05-0.805 0.485-1.713 0.718-2.722 0.701v0c-0.983-0.017-1.875-0.271-2.677-0.763-0.795-0.498-1.421-1.196-1.878-2.094-0.456-0.898-0.674-1.954-0.653-3.17v0c0.02-1.195 0.274-2.23 0.76-3.105 0.486-0.875 1.135-1.545 1.947-2.01 0.818-0.471 1.709-0.698 2.671-0.682z" fill="#e8772e" data-fill-palette-color="accent"></path><path d="M147.13 235.324v0c-1.601 0.323-3.091 0.244-4.468-0.236-1.384-0.48-2.56-1.269-3.527-2.368-0.974-1.098-1.616-2.418-1.927-3.961v0c-0.311-1.543-0.231-3.009 0.241-4.398 0.465-1.388 1.243-2.571 2.332-3.55 1.083-0.977 2.426-1.628 4.027-1.951v0c1.608-0.324 3.107-0.248 4.498 0.231 1.391 0.478 2.566 1.267 3.527 2.368 0.954 1.102 1.587 2.424 1.898 3.966v0c0.311 1.543 0.241 3.007-0.212 4.393-0.459 1.387-1.236 2.57-2.332 3.55-1.096 0.98-2.448 1.632-4.057 1.956zM146.638 232.883v0c1.094-0.221 1.99-0.666 2.688-1.335 0.697-0.676 1.181-1.499 1.453-2.468 0.28-0.964 0.31-1.99 0.09-3.077v0c-0.219-1.087-0.646-2.024-1.278-2.811-0.625-0.782-1.39-1.349-2.295-1.702-0.904-0.353-1.904-0.419-2.997-0.198v0c-1.068 0.215-1.956 0.662-2.666 1.341-0.703 0.677-1.195 1.498-1.475 2.462-0.272 0.969-0.298 1.998-0.079 3.085v0c0.219 1.087 0.642 2.022 1.267 2.803 0.633 0.787 1.405 1.356 2.316 1.708 0.916 0.344 1.908 0.408 2.976 0.192z" fill="#e8772e" data-fill-palette-color="accent"></path><path d="M166.063 229.433l-2.703 1.046-4.143-10.702c-0.515-1.332-0.542-2.521-0.078-3.569 0.459-1.039 1.355-1.817 2.686-2.333v0l3.075-1.19 0.896 2.313-2.574 0.996c-0.65 0.252-1.083 0.633-1.298 1.144-0.215 0.511-0.195 1.097 0.062 1.76v0z" fill="#e8772e" data-fill-palette-color="accent"></path><path d="M183.298 221.034v0c-1.336 0.793-2.68 1.158-4.03 1.095-1.356-0.06-2.621-0.487-3.796-1.28-1.176-0.785-2.161-1.845-2.954-3.181v0c-0.803-1.353-1.241-2.747-1.311-4.18-0.071-1.433 0.247-2.792 0.952-4.076 0.7-1.28 1.806-2.37 3.319-3.268v0c1.462-0.868 2.902-1.298 4.32-1.29 1.421 0.014 2.738 0.39 3.95 1.131 1.209 0.749 2.209 1.789 2.999 3.12v0l4.144 6.982-2.51 1.489-1.668-2.809-0.059 0.035c0.04 0.679-0.029 1.396-0.207 2.15-0.172 0.751-0.511 1.481-1.017 2.191-0.502 0.715-1.213 1.346-2.132 1.891zM182.678 218.506v0c0.902-0.536 1.568-1.228 1.998-2.078 0.436-0.853 0.614-1.789 0.534-2.808-0.082-1.01-0.411-2-0.987-2.97v0c-0.57-0.959-1.261-1.708-2.074-2.245-0.822-0.539-1.706-0.825-2.652-0.858-0.95-0.039-1.884 0.215-2.804 0.761v0c-0.977 0.58-1.676 1.3-2.1 2.161-0.429 0.865-0.599 1.788-0.51 2.771 0.086 0.991 0.418 1.972 0.994 2.943v0c0.556 0.937 1.241 1.681 2.055 2.232 0.817 0.557 1.703 0.858 2.656 0.903 0.95 0.039 1.913-0.232 2.89-0.812z" fill="#e8772e" data-fill-palette-color="accent"></path><path d="M205.326 203.876l-2.819 2.511c-1.066 0.95-2.171 1.387-3.315 1.311-1.148-0.071-2.191-0.633-3.127-1.684v0l-10.308-11.577 2.165-1.927 10.182 11.434c0.459 0.516 0.97 0.799 1.531 0.851 0.561 0.051 1.103-0.155 1.624-0.619v0l2.418-2.153zM196.354 193.711l-8.339 7.426-1.65-1.852 8.34-7.427z" fill="#e8772e" data-fill-palette-color="accent"></path><path d="M212.768 195.858l-1.948 2.187-11.976-10.669 1.948-2.187zM197.927 184.571v0c-0.349 0.392-0.795 0.603-1.339 0.635-0.553 0.032-1.026-0.127-1.417-0.476v0c-0.392-0.349-0.601-0.798-0.628-1.347-0.036-0.548 0.12-1.018 0.469-1.41v0c0.349-0.392 0.798-0.601 1.346-0.628 0.548-0.036 1.018 0.12 1.41 0.469v0c0.392 0.349 0.604 0.8 0.636 1.354 0.031 0.544-0.127 1.012-0.477 1.403z" fill="#e8772e" data-fill-palette-color="accent"></path><path d="M222.749 182.189v0c-0.88 1.376-1.972 2.393-3.274 3.05-1.306 0.662-2.691 0.959-4.153 0.891-1.466-0.062-2.862-0.518-4.188-1.366v0c-1.326-0.848-2.325-1.924-2.996-3.228-0.675-1.299-0.986-2.68-0.933-4.144 0.05-1.458 0.515-2.875 1.395-4.252v0c0.884-1.382 1.981-2.407 3.291-3.075 1.31-0.668 2.694-0.965 4.153-0.891 1.455 0.079 2.846 0.543 4.172 1.391v0c1.326 0.848 2.33 1.916 3.012 3.203 0.679 1.293 0.989 2.675 0.932 4.144-0.057 1.469-0.527 2.895-1.411 4.277zM220.651 180.847v0c0.601-0.94 0.904-1.894 0.908-2.86-0.002-0.971-0.257-1.891-0.766-2.76-0.499-0.871-1.216-1.605-2.15-2.203v0c-0.934-0.598-1.904-0.942-2.91-1.034-0.997-0.093-1.936 0.063-2.818 0.468-0.882 0.405-1.624 1.078-2.225 2.018v0c-0.587 0.918-0.883 1.867-0.888 2.85-0.002 0.976 0.247 1.9 0.746 2.771 0.508 0.869 1.23 1.602 2.164 2.2v0c0.934 0.598 1.9 0.943 2.896 1.037 1.006 0.091 1.952-0.068 2.838-0.48 0.884-0.42 1.619-1.089 2.205-2.007z" fill="#e8772e" data-fill-palette-color="accent"></path><path d="M231.645 164.098l-1.04 2.706-8.657-3.327c-1.333-0.512-2.383-1.261-3.15-2.246-0.769-0.979-1.229-2.105-1.379-3.38-0.153-1.268 0.03-2.578 0.549-3.929v0c0.527-1.37 1.27-2.472 2.231-3.305 0.961-0.833 2.054-1.356 3.281-1.567 1.227-0.212 2.507-0.061 3.839 0.451v0l8.658 3.327-1.037 2.697-8.629-3.317c-0.905-0.348-1.76-0.445-2.566-0.292-0.81 0.144-1.517 0.477-2.124 0.998-0.606 0.521-1.052 1.154-1.337 1.898v0c-0.286 0.744-0.378 1.512-0.278 2.305 0.101 0.793 0.403 1.514 0.908 2.163 0.496 0.653 1.197 1.154 2.102 1.502v0z" fill="#e8772e" data-fill-palette-color="accent"></path><path d="M3.404 119.039c0-4.804 3.895-8.699 8.699-8.699 4.804 0 8.699 3.895 8.699 8.699 0 4.804-3.895 8.699-8.699 8.7-4.804 0-8.699-3.895-8.699-8.7z" fill="#e8772e" data-fill-palette-color="accent"></path><path d="M223.851 119.039c0-4.804 3.895-8.699 8.699-8.699 4.804 0 8.699 3.895 8.699 8.699 0 4.804-3.895 8.699-8.699 8.7-4.804 0-8.699-3.895-8.699-8.7z" fill="#e8772e" data-fill-palette-color="accent"></path></g><g id="text-1"></g></svg></g></svg></g><g></g></svg></g><defs></defs></svg><rect width="276.53127110943785" height="247.2" fill="none" stroke="none" visibility="hidden"></rect></g></svg></g></svg>